HIERARCHY
ROOT hip
{
	OFFSET 0.000000 0.000000 0.000000 
	CHANNELS 6 Xposition Yposition Zposition Xrotation Zrotation Yrotation
	JOINT abdomen
	{
		OFFSET 0.000000 3.402643 0.000000 
		CHANNELS 3 Xrotation Zrotation Yrotation
		JOINT chest
		{
			OFFSET 0.000000 8.438565 -0.680529 
			CHANNELS 3 Xrotation Zrotation Yrotation
			JOINT neck
			{
				OFFSET 0.000000 10.207942 -0.272212 
				CHANNELS 3 Xrotation Zrotation Yrotation
				JOINT head
				{
					OFFSET 0.000000 3.130431 0.000000 
					CHANNELS 3 Xrotation Zrotation Yrotation
					End Site
					{
						OFFSET 0.000000 3.130435 0.000000 
					}
				}
			}
			JOINT lCollar
			{
				OFFSET 3.470700 6.669187 -0.816635 
				CHANNELS 3 Yrotation Zrotation Xrotation
				JOINT lShldr
				{
					OFFSET 3.198488 0.000000 0.000000 
					CHANNELS 3 Zrotation Yrotation Xrotation
					JOINT lForeArm
					{
						OFFSET 10.139888 0.000000 0.000000 
						CHANNELS 3 Yrotation Zrotation Xrotation
						JOINT lHand
						{
							OFFSET 8.370511 0.000000 0.000000 
							CHANNELS 3 Zrotation Yrotation Xrotation
							End Site
							{
								OFFSET 4.083176 0.000000 0.000000 
							}
						}
					}
				}
			}
			JOINT rCollar
			{
				OFFSET -3.470700 6.669187 -0.816635 
				CHANNELS 3 Yrotation Zrotation Xrotation
				JOINT rShldr
				{
					OFFSET -3.198488 0.000000 0.000000 
					CHANNELS 3 Zrotation Yrotation Xrotation
					JOINT rForeArm
					{
						OFFSET -10.139888 0.000000 0.000000 
						CHANNELS 3 Yrotation Zrotation Xrotation
						JOINT rHand
						{
							OFFSET -8.370511 0.000000 0.000000 
							CHANNELS 3 Zrotation Yrotation Xrotation
							End Site
							{
								OFFSET -4.083176 0.000000 0.000000 
							}
						}
					}
				}
			}
		}
	}
	JOINT lThigh
	{
		OFFSET 5.308129 -1.633274 1.361059 
		CHANNELS 3 Xrotation Zrotation Yrotation
		JOINT lShin
		{
			OFFSET -2.041588 -20.007561 0.000000 
			CHANNELS 3 Xrotation Zrotation Yrotation
			JOINT lFoot
			{
				OFFSET 0.000000 -19.190928 -1.224953 
				CHANNELS 3 Xrotation Yrotation Zrotation
				End Site
				{
					OFFSET 0.000000 -2.449906 4.627600 
				}
			}
		}
	}
	JOINT rThigh
	{
		OFFSET -5.308129 -1.633274 1.361059 
		CHANNELS 3 Xrotation Zrotation Yrotation
		JOINT rShin
		{
			OFFSET 2.041588 -20.007561 0.000000 
			CHANNELS 3 Xrotation Zrotation Yrotation
			JOINT rFoot
			{
				OFFSET 0.000000 -19.190928 -1.224953 
				CHANNELS 3 Xrotation Yrotation Zrotation
				End Site
				{
					OFFSET 0.000000 -2.449906 4.627600 
				}
			}
		}
	}
}
MOTION
Frames: 14
Frame Time: 0.033333
-7.521169 40.856518 -38.455589 2.978516 -12.666015 64.160156 23.593750 -0.976563 0.185547 -23.125002 -5.966797 1.435547 -23.447266 -0.869141 -30.185612 16.699219 0.507812 -29.140631 4.003906 5.556641 0.116240 -66.396484 0.937500 36.445316 -73.183594 -3.027344 -31.366671 -7.207031 11.806641 -2.009719 -8.535156 -6.884765 0.195312 88.808594 33.818359 65.322266 52.841801 3.632812 -60.957649 -12.988281 -7.597657 1.365896 -38.934784 37.274010 14.528546 74.029678 1.253036 -4.042631 -16.990740 -5.680397 -7.142672 -53.559875 -26.148359 -16.730463 69.991798 -1.415754 3.414783 -6.720648 8.801386 5.815516 
-7.618036 40.469170 -40.022190 5.273438 -12.656059 62.537292 23.769531 -0.302734 0.410105 -23.134766 -6.494141 1.435547 -24.404297 -1.679688 -29.414351 15.996093 0.341797 -28.652319 4.521484 6.093750 0.204041 -68.261719 -0.322266 35.263596 -74.365234 -3.017578 -32.675781 -5.097657 11.259766 -1.425781 -9.726563 -7.812500 0.244141 89.042969 36.279297 63.531170 54.755859 3.632813 -62.022106 -12.636719 -7.783204 1.396484 -40.951424 38.273567 12.070371 76.839523 1.251877 -4.170244 -15.771426 -11.504028 -8.640897 -56.119228 -26.452368 -11.734722 68.618935 -1.064479 3.083252 -10.102115 5.736595 5.875624 
-7.521643 40.091896 -41.648426 6.679688 -12.138672 60.427631 23.593750 0.195313 0.566406 -23.652342 -6.845703 1.414852 -23.457033 -1.933594 -28.330082 15.468749 0.166016 -27.626951 4.853516 6.464844 0.301635 -69.833984 -1.953125 34.482418 -76.425781 -3.105469 -33.993614 -3.027344 10.117188 -1.035156 -10.048829 -8.701172 0.214844 89.453125 39.365234 62.216793 56.572266 3.603516 -63.203129 -11.298828 -6.494141 0.957031 -39.979141 39.734631 9.038510 78.776810 1.427650 -3.941855 -16.398054 -7.728128 -7.635243 -58.826283 -27.215666 -7.579872 67.200302 -1.073191 3.377099 -9.644901 4.721076 5.927095 
-7.242422 39.831173 -43.326710 7.197265 -11.259766 58.007813 23.261719 0.810547 0.400391 -24.003906 -6.845704 1.053524 -20.449217 -0.742188 -26.855595 15.117186 -0.009766 -26.230469 5.029297 6.992188 0.234375 -70.380859 -3.378906 33.690830 -79.521484 -3.095703 -34.882286 -0.419922 8.085938 -0.458984 -9.843751 -9.257813 0.341797 89.853516 43.164063 61.269527 59.667965 3.632813 -62.958984 -11.738280 -4.619141 0.575385 -35.514896 41.627209 5.988226 78.069374 1.241806 -4.221128 -15.951854 -0.032007 -5.565035 -59.984810 -27.721699 -3.904947 64.582153 -0.712726 3.134606 -6.811292 5.811611 5.652797 
-6.803967 39.808643 -45.118938 7.197266 -10.029298 55.535408 22.402344 1.474609 0.058845 -24.179688 -6.669922 0.517578 -15.390624 1.552734 -24.970436 15.117186 -0.185547 -24.296877 5.175781 7.880859 0.312500 -70.468750 -5.732421 31.581060 -83.593750 -3.105469 -34.901817 2.304688 5.644531 -0.078125 -10.312501 -10.009766 0.478516 90.742188 49.023438 62.128910 65.371094 3.681641 -63.818356 -15.996095 -4.101563 0.820313 -27.595346 42.310604 4.975111 73.526047 1.086335 -3.813921 -12.293576 3.637656 -4.438086 -59.362068 -27.928190 -1.405248 59.834042 -0.546960 3.218268 -3.314923 7.372641 5.303490 
-6.285959 40.034389 -47.103359 6.679688 -8.798827 53.055149 21.367188 1.630859 -0.439175 -24.179688 -6.318359 -0.009766 -7.958984 4.121094 -22.245392 15.292970 -0.185547 -21.835972 5.312500 9.296875 0.322266 -69.921875 -8.769532 27.646484 -88.671875 -3.115234 -35.458454 4.248047 3.876954 -0.019531 -11.816405 -11.328125 0.451137 91.347656 57.685543 63.164059 72.587891 3.535156 -66.601563 -20.800781 -4.169922 1.190698 -18.593781 41.005325 4.556054 66.518547 0.430680 -3.580355 -6.763148 4.282453 -4.823642 -57.433613 -27.760105 0.832747 52.986004 -0.341848 3.019413 1.156020 9.059034 4.625715 
-5.785851 40.398502 -49.270248 6.152344 -7.910156 50.976563 20.146486 1.513672 -1.220445 -23.828125 -5.791016 -0.704111 0.146484 6.914060 -19.227350 14.941406 -0.537109 -19.208982 5.595703 11.083984 0.458984 -67.402344 -14.599609 22.224102 -94.541016 -3.134766 -35.692825 5.839844 1.406226 0.058830 -14.003907 -12.529297 0.439453 87.148438 70.302734 59.052162 79.589844 3.574219 -68.525993 -21.806641 -2.978516 0.957031 -11.269135 37.927219 4.767846 58.593632 -0.141716 -3.369924 -1.703077 3.957865 -5.061522 -54.879971 -27.723423 3.426762 45.086552 0.159009 2.548933 7.186859 8.380526 3.848540 
-5.419011 40.717442 -51.565319 5.791016 -7.734375 49.570313 19.101561 1.289063 -1.660156 -23.652344 -4.912109 -1.044922 7.763672 8.476563 -16.248560 13.535157 -1.064453 -16.826353 6.181641 13.242188 0.595703 -62.324219 -24.082033 13.613281 -99.648438 -3.046875 -34.989712 8.291017 -0.507813 -0.263758 -16.914063 -14.453126 0.627438 36.396484 82.949219 5.488281 85.361328 3.632813 -68.945313 -20.654295 -0.820313 0.195173 -5.458892 34.330673 5.341749 51.412552 -0.255533 -3.061551 -2.485000 5.148996 -4.755821 -53.063187 -27.596478 5.014114 38.241108 0.517390 2.176950 12.911616 5.373623 3.673588 
-5.267128 40.838142 -53.889904 5.625000 -8.095703 48.309174 18.398438 0.839844 -1.992044 -23.994141 -4.208984 -1.231186 13.203124 9.082031 -14.052736 11.611328 -1.240234 -14.980678 7.373047 16.152344 0.807830 -53.310547 -36.152344 -0.781251 -102.255859 -3.115234 -35.410152 10.937499 -0.019531 -0.068359 -19.941406 -16.660156 0.683594 -41.132813 72.158203 -78.642578 88.837891 3.574219 -68.799438 -18.857422 1.669922 -0.693075 -2.314785 31.951403 7.144630 47.547588 -0.465050 -2.964016 -9.936234 6.383393 -4.333875 -53.001770 -26.696869 4.621785 34.922997 0.517487 2.022442 15.540706 0.687159 4.785704 
-5.297956 40.786091 -56.125084 5.625000 -8.974609 47.254337 18.574219 0.224609 -2.373009 -24.521484 -3.857422 -1.426438 15.214844 8.544922 -12.605971 9.853516 -0.712891 -13.838013 9.335938 19.150389 0.878906 -37.636719 -47.724609 -22.294920 -99.882813 -3.066406 -35.742188 12.343750 -0.019531 -0.146488 -23.408203 -18.710939 0.781250 -46.748043 55.273438 -92.755646 90.019531 3.613281 -69.287109 -17.832029 3.603516 -1.307980 -1.280455 30.991369 11.624615 45.816048 -0.639955 -2.765049 -17.229147 5.065758 -3.542033 -54.591763 -26.168798 2.442297 37.354061 0.523342 2.108160 12.847146 0.781468 4.846941 
-5.420197 40.736294 -58.196297 6.328125 -9.677734 46.365547 18.935547 -0.341779 -2.929893 -25.224609 -4.033203 -1.797562 15.009766 7.558594 -11.961607 8.974610 0.517578 -12.997940 11.708984 21.894533 1.035156 -15.185548 -53.408203 -49.111324 -93.955078 -3.134766 -36.533199 12.871094 -1.875000 -0.527344 -27.187500 -19.599609 0.833354 -45.058590 41.250000 -99.944740 89.804688 3.750000 -68.925781 -17.656248 3.955078 -1.298153 -2.345477 30.804499 17.113102 45.965439 -0.630048 -2.952717 -23.294827 2.409426 -3.988330 -57.210369 -25.270758 -0.588017 43.869820 0.341865 2.728386 7.702938 6.954519 3.735907 
-5.543148 40.847744 -60.030853 7.197265 -10.380859 45.869141 19.296875 -0.791016 -3.808594 -25.751953 -4.033203 -2.344437 13.261720 6.533204 -11.659045 8.447266 1.220703 -12.666016 13.886719 23.662109 1.216784 5.712890 -52.138668 -73.173828 -88.066406 -3.173828 -39.511181 11.679688 -4.960771 -0.987103 -31.279299 -18.798828 0.800781 -43.203129 31.552734 -106.523438 89.287109 3.671875 -67.001953 -17.988279 2.988281 -0.985819 -5.156415 30.233877 20.584808 47.548012 -0.454390 -2.949909 -28.008730 0.510035 -5.043885 -58.933613 -24.559710 -3.710101 51.243053 -0.204971 2.668778 2.517581 12.004052 4.598213 
-5.590811 41.173325 -61.569588 7.900391 -11.259767 45.662159 19.306639 -1.074219 -4.648438 -26.103514 -4.208984 -3.057358 12.382812 6.533203 -11.660157 7.919922 1.386719 -12.695076 14.921875 24.374086 1.324409 17.695311 -47.265625 -87.783203 -84.365234 -3.310547 -42.479912 10.537110 -8.066406 -1.436917 -34.345703 -17.041016 0.627862 -41.806637 26.552732 -113.062042 88.818359 3.759766 -64.550781 -17.099609 2.480469 -0.937076 -8.301668 29.053299 20.609821 49.119003 -0.464732 -3.032175 -29.922525 0.343857 -5.400180 -58.766502 -23.494488 -7.207196 56.862068 -0.379288 2.839854 -1.612912 10.202068 5.144510 
-5.550381 41.630630 -62.832195 8.437499 -11.962891 45.488281 19.140625 -0.917969 -5.146641 -26.279297 -4.199219 -3.594465 11.865233 6.337891 -11.816407 7.392578 1.738281 -12.724610 15.117186 24.208984 1.240233 23.359377 -42.773438 -95.934364 -83.134766 -3.369141 -43.828121 10.634766 -10.117187 -1.818120 -36.972656 -15.703124 0.693359 -41.562500 24.970701 -120.800774 89.042969 3.652344 -62.949844 -16.582033 2.841797 -0.908203 -10.907895 27.462757 19.659386 49.987629 -0.726626 -2.872111 -30.835377 0.769300 -4.685847 -57.382870 -22.275520 -9.919338 58.270790 -0.360331 3.076674 -5.094373 4.010772 5.158267 
